<?xml version="1.0" encoding="utf-8"?>
<!-- Generator: Adobe Illustrator 25.4.1, SVG Export Plug-In . SVG Version: 6.00 Build 0)  -->
<svg version="1.1" id="Ebene_1" xmlns="http://www.w3.org/2000/svg" xmlns:xlink="http://www.w3.org/1999/xlink" x="0px" y="0px"
	 viewBox="0 0 26 26" style="enable-background:new 0 0 26 26;" xml:space="preserve">
<style type="text/css">
	.st0{fill-rule:evenodd;clip-rule:evenodd;fill:#FFFFFF;}
</style>
<path d="M13,0L13,0c7.2,0,13,5.8,13,13l0,0c0,7.2-5.8,13-13,13l0,0C5.8,26,0,20.2,0,13l0,0C0,5.8,5.8,0,13,0z"/>
<path class="st0" d="M13,14l5,5l1-1l-5-5l5-5l-1-1l-5,5L8,7L7,8l5,5l-5,5l1,1L13,14z"/>
</svg>
